<mxfile host="app.diagrams.net" modified="2023-10-03T10:41:58.869Z" agent="Mozilla/5.0 (Windows NT 10.0; Win64; x64) AppleWebKit/537.36 (KHTML, like Gecko) Chrome/117.0.0.0 Safari/537.36 Edg/117.0.2045.47" etag="2P9t0bMyDMJ8292cKNh7" version="22.0.0" type="device">
  <diagram name="Page-1" id="nfy76f-avedy_YNivPaa">
    <mxGraphModel dx="2103" dy="1811" grid="1" gridSize="10" guides="1" tooltips="1" connect="1" arrows="1" fold="1" page="1" pageScale="1" pageWidth="850" pageHeight="1100" math="0" shadow="0">
      <root>
        <mxCell id="0" />
        <mxCell id="1" parent="0" />
        <mxCell id="7BGpslnizMnQiRFDvixU-24" style="edgeStyle=orthogonalEdgeStyle;rounded=0;orthogonalLoop=1;jettySize=auto;html=1;exitX=0.07;exitY=0.4;exitDx=0;exitDy=0;exitPerimeter=0;" edge="1" parent="1">
          <mxGeometry relative="1" as="geometry">
            <mxPoint x="40" y="236" as="targetPoint" />
            <mxPoint x="110.40000000000009" y="236" as="sourcePoint" />
          </mxGeometry>
        </mxCell>
        <mxCell id="7BGpslnizMnQiRFDvixU-35" style="edgeStyle=orthogonalEdgeStyle;rounded=0;orthogonalLoop=1;jettySize=auto;html=1;exitX=0.16;exitY=0.55;exitDx=0;exitDy=0;exitPerimeter=0;endArrow=none;endFill=0;startArrow=classic;startFill=1;" edge="1" parent="1" source="7BGpslnizMnQiRFDvixU-2">
          <mxGeometry relative="1" as="geometry">
            <mxPoint x="40" y="254.04347826086962" as="targetPoint" />
          </mxGeometry>
        </mxCell>
        <mxCell id="7BGpslnizMnQiRFDvixU-2" value="Elemen 1" style="ellipse;shape=cloud;whiteSpace=wrap;html=1;" vertex="1" parent="1">
          <mxGeometry x="100" y="210" width="120" height="80" as="geometry" />
        </mxCell>
        <mxCell id="7BGpslnizMnQiRFDvixU-62" style="edgeStyle=orthogonalEdgeStyle;rounded=0;orthogonalLoop=1;jettySize=auto;html=1;exitX=0.625;exitY=0.2;exitDx=0;exitDy=0;exitPerimeter=0;endArrow=none;endFill=0;startArrow=classic;startFill=1;" edge="1" parent="1" source="7BGpslnizMnQiRFDvixU-3">
          <mxGeometry relative="1" as="geometry">
            <mxPoint x="354.6521739130435" y="60" as="targetPoint" />
          </mxGeometry>
        </mxCell>
        <mxCell id="7BGpslnizMnQiRFDvixU-3" value="Elemen Baru" style="ellipse;shape=cloud;whiteSpace=wrap;html=1;" vertex="1" parent="1">
          <mxGeometry x="280" y="100" width="120" height="80" as="geometry" />
        </mxCell>
        <mxCell id="7BGpslnizMnQiRFDvixU-4" value="Elemen 2" style="ellipse;shape=cloud;whiteSpace=wrap;html=1;" vertex="1" parent="1">
          <mxGeometry x="450" y="210" width="120" height="80" as="geometry" />
        </mxCell>
        <mxCell id="7BGpslnizMnQiRFDvixU-19" value="" style="edgeStyle=orthogonalEdgeStyle;rounded=0;orthogonalLoop=1;jettySize=auto;html=1;exitX=0.1;exitY=0.49;exitDx=0;exitDy=0;exitPerimeter=0;entryX=0.875;entryY=0.5;entryDx=0;entryDy=0;entryPerimeter=0;" edge="1" parent="1" source="7BGpslnizMnQiRFDvixU-5" target="7BGpslnizMnQiRFDvixU-4">
          <mxGeometry relative="1" as="geometry" />
        </mxCell>
        <mxCell id="7BGpslnizMnQiRFDvixU-29" style="edgeStyle=orthogonalEdgeStyle;rounded=0;orthogonalLoop=1;jettySize=auto;html=1;exitX=0.88;exitY=0.25;exitDx=0;exitDy=0;exitPerimeter=0;" edge="1" parent="1" source="7BGpslnizMnQiRFDvixU-5">
          <mxGeometry relative="1" as="geometry">
            <mxPoint x="830" y="230" as="targetPoint" />
          </mxGeometry>
        </mxCell>
        <mxCell id="7BGpslnizMnQiRFDvixU-34" style="edgeStyle=orthogonalEdgeStyle;rounded=0;orthogonalLoop=1;jettySize=auto;html=1;exitX=0.875;exitY=0.5;exitDx=0;exitDy=0;exitPerimeter=0;endArrow=none;endFill=0;startArrow=classic;startFill=1;" edge="1" parent="1" source="7BGpslnizMnQiRFDvixU-5">
          <mxGeometry relative="1" as="geometry">
            <mxPoint x="830" y="249.8461538461538" as="targetPoint" />
          </mxGeometry>
        </mxCell>
        <mxCell id="7BGpslnizMnQiRFDvixU-5" value="Elemen 3" style="ellipse;shape=cloud;whiteSpace=wrap;html=1;" vertex="1" parent="1">
          <mxGeometry x="650" y="210" width="120" height="80" as="geometry" />
        </mxCell>
        <mxCell id="7BGpslnizMnQiRFDvixU-7" style="edgeStyle=orthogonalEdgeStyle;orthogonalLoop=1;jettySize=auto;html=1;entryX=0.625;entryY=0.2;entryDx=0;entryDy=0;entryPerimeter=0;exitX=0.16;exitY=0.55;exitDx=0;exitDy=0;exitPerimeter=0;curved=1;" edge="1" parent="1" source="7BGpslnizMnQiRFDvixU-3" target="7BGpslnizMnQiRFDvixU-2">
          <mxGeometry relative="1" as="geometry" />
        </mxCell>
        <mxCell id="7BGpslnizMnQiRFDvixU-8" style="edgeStyle=orthogonalEdgeStyle;orthogonalLoop=1;jettySize=auto;html=1;exitX=0.4;exitY=0.1;exitDx=0;exitDy=0;exitPerimeter=0;entryX=0.25;entryY=0.25;entryDx=0;entryDy=0;entryPerimeter=0;curved=1;" edge="1" parent="1" source="7BGpslnizMnQiRFDvixU-2" target="7BGpslnizMnQiRFDvixU-3">
          <mxGeometry relative="1" as="geometry">
            <Array as="points">
              <mxPoint x="148" y="120" />
            </Array>
          </mxGeometry>
        </mxCell>
        <mxCell id="7BGpslnizMnQiRFDvixU-9" value="FIRST" style="text;html=1;strokeColor=none;fillColor=none;align=center;verticalAlign=middle;whiteSpace=wrap;rounded=0;" vertex="1" parent="1">
          <mxGeometry x="50" y="258" width="60" height="30" as="geometry" />
        </mxCell>
        <mxCell id="7BGpslnizMnQiRFDvixU-11" value="prev" style="text;html=1;strokeColor=none;fillColor=none;align=center;verticalAlign=middle;whiteSpace=wrap;rounded=0;" vertex="1" parent="1">
          <mxGeometry x="180" y="150" width="60" height="30" as="geometry" />
        </mxCell>
        <mxCell id="7BGpslnizMnQiRFDvixU-14" style="edgeStyle=orthogonalEdgeStyle;orthogonalLoop=1;jettySize=auto;html=1;exitX=0.4;exitY=0.1;exitDx=0;exitDy=0;exitPerimeter=0;entryX=0.875;entryY=0.5;entryDx=0;entryDy=0;entryPerimeter=0;curved=1;" edge="1" parent="1" source="7BGpslnizMnQiRFDvixU-4" target="7BGpslnizMnQiRFDvixU-3">
          <mxGeometry relative="1" as="geometry">
            <Array as="points">
              <mxPoint x="498" y="140" />
            </Array>
          </mxGeometry>
        </mxCell>
        <mxCell id="7BGpslnizMnQiRFDvixU-15" style="edgeStyle=orthogonalEdgeStyle;orthogonalLoop=1;jettySize=auto;html=1;exitX=0.88;exitY=0.25;exitDx=0;exitDy=0;exitPerimeter=0;entryX=0.625;entryY=0.2;entryDx=0;entryDy=0;entryPerimeter=0;curved=1;" edge="1" parent="1" source="7BGpslnizMnQiRFDvixU-3" target="7BGpslnizMnQiRFDvixU-4">
          <mxGeometry relative="1" as="geometry" />
        </mxCell>
        <mxCell id="7BGpslnizMnQiRFDvixU-16" style="edgeStyle=orthogonalEdgeStyle;rounded=0;orthogonalLoop=1;jettySize=auto;html=1;exitX=0.88;exitY=0.25;exitDx=0;exitDy=0;exitPerimeter=0;entryX=0.25;entryY=0.25;entryDx=0;entryDy=0;entryPerimeter=0;" edge="1" parent="1" source="7BGpslnizMnQiRFDvixU-4" target="7BGpslnizMnQiRFDvixU-5">
          <mxGeometry relative="1" as="geometry" />
        </mxCell>
        <mxCell id="7BGpslnizMnQiRFDvixU-20" value="next" style="text;html=1;strokeColor=none;fillColor=none;align=center;verticalAlign=middle;whiteSpace=wrap;rounded=0;" vertex="1" parent="1">
          <mxGeometry x="425" y="90" width="60" height="30" as="geometry" />
        </mxCell>
        <mxCell id="7BGpslnizMnQiRFDvixU-21" value="next" style="text;html=1;strokeColor=none;fillColor=none;align=center;verticalAlign=middle;whiteSpace=wrap;rounded=0;" vertex="1" parent="1">
          <mxGeometry x="580" y="200" width="60" height="30" as="geometry" />
        </mxCell>
        <mxCell id="7BGpslnizMnQiRFDvixU-22" value="prev" style="text;html=1;strokeColor=none;fillColor=none;align=center;verticalAlign=middle;whiteSpace=wrap;rounded=0;" vertex="1" parent="1">
          <mxGeometry x="425" y="150" width="60" height="30" as="geometry" />
        </mxCell>
        <mxCell id="7BGpslnizMnQiRFDvixU-23" value="prev" style="text;html=1;strokeColor=none;fillColor=none;align=center;verticalAlign=middle;whiteSpace=wrap;rounded=0;" vertex="1" parent="1">
          <mxGeometry x="580" y="250" width="60" height="30" as="geometry" />
        </mxCell>
        <mxCell id="7BGpslnizMnQiRFDvixU-26" value="prev" style="text;html=1;strokeColor=none;fillColor=none;align=center;verticalAlign=middle;whiteSpace=wrap;rounded=0;" vertex="1" parent="1">
          <mxGeometry x="50" y="210" width="60" height="30" as="geometry" />
        </mxCell>
        <mxCell id="7BGpslnizMnQiRFDvixU-27" value="NULL" style="text;html=1;strokeColor=none;fillColor=none;align=center;verticalAlign=middle;whiteSpace=wrap;rounded=0;" vertex="1" parent="1">
          <mxGeometry x="-30" y="228" width="60" height="30" as="geometry" />
        </mxCell>
        <mxCell id="7BGpslnizMnQiRFDvixU-31" value="next" style="text;html=1;strokeColor=none;fillColor=none;align=center;verticalAlign=middle;whiteSpace=wrap;rounded=0;" vertex="1" parent="1">
          <mxGeometry x="760" y="198" width="60" height="30" as="geometry" />
        </mxCell>
        <mxCell id="7BGpslnizMnQiRFDvixU-32" value="TAIL" style="text;html=1;strokeColor=none;fillColor=none;align=center;verticalAlign=middle;whiteSpace=wrap;rounded=0;" vertex="1" parent="1">
          <mxGeometry x="760" y="258" width="60" height="30" as="geometry" />
        </mxCell>
        <mxCell id="7BGpslnizMnQiRFDvixU-33" value="NULL" style="text;html=1;strokeColor=none;fillColor=none;align=center;verticalAlign=middle;whiteSpace=wrap;rounded=0;" vertex="1" parent="1">
          <mxGeometry x="840" y="214" width="60" height="30" as="geometry" />
        </mxCell>
        <mxCell id="7BGpslnizMnQiRFDvixU-36" style="edgeStyle=orthogonalEdgeStyle;rounded=0;orthogonalLoop=1;jettySize=auto;html=1;exitX=0.07;exitY=0.4;exitDx=0;exitDy=0;exitPerimeter=0;" edge="1" parent="1" source="7BGpslnizMnQiRFDvixU-38">
          <mxGeometry relative="1" as="geometry">
            <mxPoint x="20" y="474" as="targetPoint" />
          </mxGeometry>
        </mxCell>
        <mxCell id="7BGpslnizMnQiRFDvixU-37" style="edgeStyle=orthogonalEdgeStyle;rounded=0;orthogonalLoop=1;jettySize=auto;html=1;exitX=0.16;exitY=0.55;exitDx=0;exitDy=0;exitPerimeter=0;endArrow=none;endFill=0;startArrow=classic;startFill=1;" edge="1" parent="1" source="7BGpslnizMnQiRFDvixU-38">
          <mxGeometry relative="1" as="geometry">
            <mxPoint x="20" y="486.0434782608696" as="targetPoint" />
          </mxGeometry>
        </mxCell>
        <mxCell id="7BGpslnizMnQiRFDvixU-38" value="Elemen Baru" style="ellipse;shape=cloud;whiteSpace=wrap;html=1;" vertex="1" parent="1">
          <mxGeometry x="80" y="442" width="120" height="80" as="geometry" />
        </mxCell>
        <mxCell id="7BGpslnizMnQiRFDvixU-39" value="Elemen 1" style="ellipse;shape=cloud;whiteSpace=wrap;html=1;" vertex="1" parent="1">
          <mxGeometry x="270" y="542" width="120" height="80" as="geometry" />
        </mxCell>
        <mxCell id="7BGpslnizMnQiRFDvixU-40" value="Elemen 2" style="ellipse;shape=cloud;whiteSpace=wrap;html=1;" vertex="1" parent="1">
          <mxGeometry x="470" y="542" width="120" height="80" as="geometry" />
        </mxCell>
        <mxCell id="7BGpslnizMnQiRFDvixU-41" value="" style="edgeStyle=orthogonalEdgeStyle;rounded=0;orthogonalLoop=1;jettySize=auto;html=1;exitX=0.1;exitY=0.49;exitDx=0;exitDy=0;exitPerimeter=0;entryX=0.875;entryY=0.5;entryDx=0;entryDy=0;entryPerimeter=0;" edge="1" parent="1" source="7BGpslnizMnQiRFDvixU-44" target="7BGpslnizMnQiRFDvixU-40">
          <mxGeometry relative="1" as="geometry" />
        </mxCell>
        <mxCell id="7BGpslnizMnQiRFDvixU-42" style="edgeStyle=orthogonalEdgeStyle;rounded=0;orthogonalLoop=1;jettySize=auto;html=1;exitX=0.88;exitY=0.25;exitDx=0;exitDy=0;exitPerimeter=0;" edge="1" parent="1" source="7BGpslnizMnQiRFDvixU-44">
          <mxGeometry relative="1" as="geometry">
            <mxPoint x="850" y="562" as="targetPoint" />
          </mxGeometry>
        </mxCell>
        <mxCell id="7BGpslnizMnQiRFDvixU-43" style="edgeStyle=orthogonalEdgeStyle;rounded=0;orthogonalLoop=1;jettySize=auto;html=1;exitX=0.875;exitY=0.5;exitDx=0;exitDy=0;exitPerimeter=0;endArrow=none;endFill=0;startArrow=classic;startFill=1;" edge="1" parent="1" source="7BGpslnizMnQiRFDvixU-44">
          <mxGeometry relative="1" as="geometry">
            <mxPoint x="850" y="581.8461538461538" as="targetPoint" />
          </mxGeometry>
        </mxCell>
        <mxCell id="7BGpslnizMnQiRFDvixU-44" value="Elemen 3" style="ellipse;shape=cloud;whiteSpace=wrap;html=1;" vertex="1" parent="1">
          <mxGeometry x="670" y="542" width="120" height="80" as="geometry" />
        </mxCell>
        <mxCell id="7BGpslnizMnQiRFDvixU-46" style="edgeStyle=orthogonalEdgeStyle;orthogonalLoop=1;jettySize=auto;html=1;entryX=0.25;entryY=0.25;entryDx=0;entryDy=0;entryPerimeter=0;exitX=0.667;exitY=0.931;exitDx=0;exitDy=0;exitPerimeter=0;curved=1;" edge="1" parent="1" source="7BGpslnizMnQiRFDvixU-38">
          <mxGeometry relative="1" as="geometry">
            <Array as="points">
              <mxPoint x="160" y="562" />
            </Array>
            <mxPoint x="149.99999999999977" y="518" as="sourcePoint" />
            <mxPoint x="304" y="562" as="targetPoint" />
          </mxGeometry>
        </mxCell>
        <mxCell id="7BGpslnizMnQiRFDvixU-47" value="FIRST" style="text;html=1;strokeColor=none;fillColor=none;align=center;verticalAlign=middle;whiteSpace=wrap;rounded=0;" vertex="1" parent="1">
          <mxGeometry x="30" y="490" width="60" height="30" as="geometry" />
        </mxCell>
        <mxCell id="7BGpslnizMnQiRFDvixU-48" value="prev" style="text;html=1;strokeColor=none;fillColor=none;align=center;verticalAlign=middle;whiteSpace=wrap;rounded=0;" vertex="1" parent="1">
          <mxGeometry x="190" y="582" width="60" height="30" as="geometry" />
        </mxCell>
        <mxCell id="7BGpslnizMnQiRFDvixU-51" style="edgeStyle=orthogonalEdgeStyle;rounded=0;orthogonalLoop=1;jettySize=auto;html=1;exitX=0.88;exitY=0.25;exitDx=0;exitDy=0;exitPerimeter=0;entryX=0.25;entryY=0.25;entryDx=0;entryDy=0;entryPerimeter=0;" edge="1" parent="1" source="7BGpslnizMnQiRFDvixU-40" target="7BGpslnizMnQiRFDvixU-44">
          <mxGeometry relative="1" as="geometry" />
        </mxCell>
        <mxCell id="7BGpslnizMnQiRFDvixU-52" value="next" style="text;html=1;strokeColor=none;fillColor=none;align=center;verticalAlign=middle;whiteSpace=wrap;rounded=0;" vertex="1" parent="1">
          <mxGeometry x="410" y="532" width="60" height="30" as="geometry" />
        </mxCell>
        <mxCell id="7BGpslnizMnQiRFDvixU-53" value="next" style="text;html=1;strokeColor=none;fillColor=none;align=center;verticalAlign=middle;whiteSpace=wrap;rounded=0;" vertex="1" parent="1">
          <mxGeometry x="600" y="532" width="60" height="30" as="geometry" />
        </mxCell>
        <mxCell id="7BGpslnizMnQiRFDvixU-54" value="prev" style="text;html=1;strokeColor=none;fillColor=none;align=center;verticalAlign=middle;whiteSpace=wrap;rounded=0;" vertex="1" parent="1">
          <mxGeometry x="410" y="582" width="60" height="30" as="geometry" />
        </mxCell>
        <mxCell id="7BGpslnizMnQiRFDvixU-55" value="prev" style="text;html=1;strokeColor=none;fillColor=none;align=center;verticalAlign=middle;whiteSpace=wrap;rounded=0;" vertex="1" parent="1">
          <mxGeometry x="600" y="582" width="60" height="30" as="geometry" />
        </mxCell>
        <mxCell id="7BGpslnizMnQiRFDvixU-56" value="prev" style="text;html=1;strokeColor=none;fillColor=none;align=center;verticalAlign=middle;whiteSpace=wrap;rounded=0;" vertex="1" parent="1">
          <mxGeometry x="30" y="442" width="60" height="30" as="geometry" />
        </mxCell>
        <mxCell id="7BGpslnizMnQiRFDvixU-57" value="NULL" style="text;html=1;strokeColor=none;fillColor=none;align=center;verticalAlign=middle;whiteSpace=wrap;rounded=0;" vertex="1" parent="1">
          <mxGeometry x="-50" y="460" width="60" height="30" as="geometry" />
        </mxCell>
        <mxCell id="7BGpslnizMnQiRFDvixU-58" value="next" style="text;html=1;strokeColor=none;fillColor=none;align=center;verticalAlign=middle;whiteSpace=wrap;rounded=0;" vertex="1" parent="1">
          <mxGeometry x="780" y="530" width="60" height="30" as="geometry" />
        </mxCell>
        <mxCell id="7BGpslnizMnQiRFDvixU-59" value="TAIL" style="text;html=1;strokeColor=none;fillColor=none;align=center;verticalAlign=middle;whiteSpace=wrap;rounded=0;" vertex="1" parent="1">
          <mxGeometry x="780" y="590" width="60" height="30" as="geometry" />
        </mxCell>
        <mxCell id="7BGpslnizMnQiRFDvixU-60" value="NULL" style="text;html=1;strokeColor=none;fillColor=none;align=center;verticalAlign=middle;whiteSpace=wrap;rounded=0;" vertex="1" parent="1">
          <mxGeometry x="860" y="546" width="60" height="30" as="geometry" />
        </mxCell>
        <mxCell id="7BGpslnizMnQiRFDvixU-61" value="next" style="text;html=1;strokeColor=none;fillColor=none;align=center;verticalAlign=middle;whiteSpace=wrap;rounded=0;" vertex="1" parent="1">
          <mxGeometry x="180" y="90" width="60" height="30" as="geometry" />
        </mxCell>
        <mxCell id="7BGpslnizMnQiRFDvixU-63" value="BARU" style="text;html=1;strokeColor=none;fillColor=none;align=center;verticalAlign=middle;whiteSpace=wrap;rounded=0;" vertex="1" parent="1">
          <mxGeometry x="325" y="20" width="60" height="30" as="geometry" />
        </mxCell>
        <mxCell id="7BGpslnizMnQiRFDvixU-66" value="" style="edgeStyle=orthogonalEdgeStyle;rounded=0;orthogonalLoop=1;jettySize=auto;html=1;" edge="1" parent="1" source="7BGpslnizMnQiRFDvixU-64" target="7BGpslnizMnQiRFDvixU-38">
          <mxGeometry relative="1" as="geometry" />
        </mxCell>
        <mxCell id="7BGpslnizMnQiRFDvixU-64" value="BARU" style="text;html=1;strokeColor=none;fillColor=none;align=center;verticalAlign=middle;whiteSpace=wrap;rounded=0;" vertex="1" parent="1">
          <mxGeometry x="260" y="467" width="60" height="30" as="geometry" />
        </mxCell>
        <mxCell id="7BGpslnizMnQiRFDvixU-67" value="next" style="text;html=1;strokeColor=none;fillColor=none;align=center;verticalAlign=middle;whiteSpace=wrap;rounded=0;" vertex="1" parent="1">
          <mxGeometry x="190" y="530" width="60" height="30" as="geometry" />
        </mxCell>
        <mxCell id="7BGpslnizMnQiRFDvixU-68" style="edgeStyle=orthogonalEdgeStyle;rounded=0;orthogonalLoop=1;jettySize=auto;html=1;exitX=0.88;exitY=0.25;exitDx=0;exitDy=0;exitPerimeter=0;entryX=0.25;entryY=0.25;entryDx=0;entryDy=0;entryPerimeter=0;" edge="1" parent="1" source="7BGpslnizMnQiRFDvixU-39" target="7BGpslnizMnQiRFDvixU-40">
          <mxGeometry relative="1" as="geometry" />
        </mxCell>
        <mxCell id="7BGpslnizMnQiRFDvixU-72" style="edgeStyle=orthogonalEdgeStyle;rounded=0;orthogonalLoop=1;jettySize=auto;html=1;entryX=0.875;entryY=0.5;entryDx=0;entryDy=0;entryPerimeter=0;exitX=0.082;exitY=0.49;exitDx=0;exitDy=0;exitPerimeter=0;" edge="1" parent="1" source="7BGpslnizMnQiRFDvixU-40" target="7BGpslnizMnQiRFDvixU-39">
          <mxGeometry relative="1" as="geometry">
            <mxPoint x="480" y="582" as="sourcePoint" />
            <Array as="points">
              <mxPoint x="478" y="581" />
            </Array>
          </mxGeometry>
        </mxCell>
        <mxCell id="7BGpslnizMnQiRFDvixU-73" style="edgeStyle=orthogonalEdgeStyle;orthogonalLoop=1;jettySize=auto;html=1;exitX=0.16;exitY=0.55;exitDx=0;exitDy=0;exitPerimeter=0;entryX=0.426;entryY=0.956;entryDx=0;entryDy=0;entryPerimeter=0;curved=1;" edge="1" parent="1" source="7BGpslnizMnQiRFDvixU-39" target="7BGpslnizMnQiRFDvixU-38">
          <mxGeometry relative="1" as="geometry" />
        </mxCell>
        <mxCell id="7BGpslnizMnQiRFDvixU-76" value="Kemungkinan - 2" style="swimlane;whiteSpace=wrap;html=1;" vertex="1" parent="1">
          <mxGeometry x="-90" y="390" width="1060" height="262" as="geometry" />
        </mxCell>
        <mxCell id="7BGpslnizMnQiRFDvixU-77" value="Kemungkinan - 1" style="swimlane;whiteSpace=wrap;html=1;" vertex="1" parent="1">
          <mxGeometry x="-90" y="-20" width="1060" height="360" as="geometry">
            <mxRectangle x="-90" y="-20" width="140" height="30" as="alternateBounds" />
          </mxGeometry>
        </mxCell>
      </root>
    </mxGraphModel>
  </diagram>
</mxfile>
